<?xml version="1.0" encoding="utf-8"?>
<!-- Generator: Adobe Illustrator 22.1.0, SVG Export Plug-In . SVG Version: 6.00 Build 0)  -->
<svg version="1.1" id="Слой_1" xmlns="http://www.w3.org/2000/svg" xmlns:xlink="http://www.w3.org/1999/xlink" x="0px" y="0px"
	 viewBox="0 0 28 28" xml:space="preserve">
<style type="text/css">
	.st0{fill:#FFFFFF;}
</style>
<path class="st0" d="M18,0H2C0.9,0,0,0.9,0,2v16c0,1.1,0.9,2,2,2h16c1.1,0,2-0.9,2-2V2C20,0.9,19.1,0,18,0z M17,16c0,0.6-0.4,1-1,1
	H4c-0.6,0-1-0.4-1-1V4c0-0.6,0.4-1,1-1h12c0.6,0,1,0.4,1,1V16z"/>
<path class="st0" d="M26,8H10c-1.1,0-2,0.9-2,2v16c0,1.1,0.9,2,2,2h16c1.1,0,2-0.9,2-2V10C28,8.9,27.1,8,26,8z M25,24
	c0,0.6-0.4,1-1,1H12c-0.6,0-1-0.4-1-1V12c0-0.6,0.4-1,1-1h12c0.6,0,1,0.4,1,1V24z"/>
<path class="st0" d="M-25.8,6.4"/>
</svg>
