<svg 
 xmlns="http://www.w3.org/2000/svg"
 xmlns:xlink="http://www.w3.org/1999/xlink"
 width="48px" height="48px">
<path fill-rule="evenodd"  fill="rgb(0, 189, 202)"
 d="M46.295,9.976 C45.852,9.976 45.417,9.780 45.123,9.404 C43.091,6.813 40.621,4.632 37.778,2.922 C37.073,2.497 36.845,1.580 37.268,0.873 C37.690,0.165 38.604,-0.064 39.310,0.361 C42.463,2.257 45.204,4.680 47.463,7.557 C47.971,8.206 47.861,9.143 47.213,9.655 C46.942,9.872 46.616,9.976 46.295,9.976 ZM46.293,25.543 C46.293,30.803 44.464,35.635 41.428,39.462 L47.346,45.400 C47.928,45.982 47.928,46.927 47.346,47.512 C47.055,47.802 46.674,47.948 46.293,47.948 C45.912,47.948 45.531,47.802 45.241,47.512 L39.422,41.672 C35.405,45.549 29.960,47.948 23.960,47.948 C17.959,47.948 12.515,45.549 8.498,41.672 L2.679,47.512 C2.389,47.802 2.008,47.948 1.626,47.948 C1.246,47.948 0.865,47.802 0.574,47.512 C-0.008,46.927 -0.008,45.982 0.574,45.400 L6.491,39.462 C3.455,35.636 1.626,30.803 1.626,25.543 C1.626,13.188 11.646,3.136 23.960,3.136 C36.274,3.136 46.293,13.188 46.293,25.543 ZM23.960,6.124 C13.288,6.124 4.605,14.835 4.605,25.543 C4.605,36.250 13.288,44.960 23.960,44.960 C34.632,44.960 43.316,36.250 43.316,25.543 C43.316,14.835 34.632,6.124 23.960,6.124 ZM25.361,25.981 C25.332,26.072 25.300,26.155 25.256,26.238 C25.212,26.321 25.160,26.395 25.100,26.469 C25.035,26.550 24.966,26.620 24.886,26.685 C24.849,26.716 24.827,26.758 24.787,26.785 L15.853,32.760 C15.598,32.929 15.311,33.011 15.028,33.011 C14.547,33.011 14.075,32.778 13.788,32.347 C13.332,31.659 13.517,30.733 14.200,30.275 L22.471,24.742 L22.471,12.098 C22.471,11.274 23.137,10.605 23.960,10.605 C24.782,10.605 25.449,11.274 25.449,12.098 L25.449,25.543 C25.449,25.592 25.426,25.633 25.421,25.680 C25.412,25.784 25.392,25.881 25.361,25.981 ZM10.140,2.924 C7.299,4.632 4.829,6.813 2.797,9.404 C2.504,9.780 2.066,9.976 1.626,9.976 C1.304,9.976 0.979,9.872 0.707,9.657 C0.060,9.146 -0.052,8.207 0.456,7.560 C2.714,4.680 5.456,2.259 8.608,0.363 C9.312,-0.062 10.228,0.165 10.651,0.875 C11.074,1.583 10.846,2.499 10.140,2.924 Z"/>
</svg>