<svg 
 xmlns="http://www.w3.org/2000/svg"
 xmlns:xlink="http://www.w3.org/1999/xlink"
 width="48px" height="47px">
<path fill-rule="evenodd"  fill="rgb(0, 189, 202)"
 d="M47.998,36.249 C47.998,40.384 44.634,43.749 40.498,43.749 C38.967,43.749 37.543,43.286 36.355,42.496 C32.815,45.237 28.481,46.747 23.999,46.747 C19.518,46.747 15.183,45.237 11.642,42.495 C10.453,43.286 9.029,43.749 7.498,43.749 C3.363,43.749 -0.002,40.384 -0.002,36.249 C-0.002,33.367 1.634,30.863 4.024,29.608 C3.860,28.564 3.748,27.523 3.748,26.497 C3.748,18.162 8.828,10.764 16.501,7.708 C16.522,3.591 19.876,0.248 23.999,0.248 C28.123,0.248 31.478,3.593 31.497,7.711 C39.168,10.769 44.248,18.164 44.248,26.498 C44.248,27.522 44.136,28.563 43.971,29.607 C46.362,30.863 47.998,33.367 47.998,36.249 ZM2.998,36.249 C2.998,38.729 5.017,40.749 7.498,40.749 C9.980,40.749 11.999,38.729 11.999,36.249 C11.999,33.768 9.980,31.749 7.498,31.749 C5.017,31.749 2.998,33.768 2.998,36.249 ZM23.999,3.247 C21.518,3.247 19.499,5.267 19.499,7.747 C19.499,10.227 21.518,12.247 23.999,12.247 C26.479,12.247 28.499,10.227 28.499,7.747 C28.499,5.267 26.479,3.247 23.999,3.247 ZM41.247,26.498 C41.247,19.582 37.144,13.420 30.890,10.701 C29.741,13.372 27.086,15.247 23.999,15.247 C20.910,15.247 18.254,13.370 17.106,10.698 C10.853,13.420 6.748,19.583 6.748,26.497 C6.748,27.247 6.819,28.011 6.923,28.778 C7.114,28.763 7.304,28.748 7.498,28.748 C11.634,28.748 14.999,32.113 14.999,36.249 C14.999,37.766 14.543,39.176 13.766,40.357 C16.727,42.549 20.308,43.746 23.999,43.746 C27.689,43.746 31.270,42.549 34.231,40.358 C33.453,39.177 32.998,37.766 32.998,36.249 C32.998,32.113 36.362,28.748 40.498,28.748 C40.692,28.748 40.882,28.763 41.072,28.778 C41.177,28.011 41.247,27.247 41.247,26.498 ZM41.974,32.018 C41.974,32.018 41.973,32.018 41.973,32.018 C41.972,32.018 41.972,32.018 41.971,32.017 C41.507,31.855 41.016,31.749 40.498,31.749 C38.017,31.749 35.998,33.768 35.998,36.249 C35.998,38.729 38.017,40.749 40.498,40.749 C42.979,40.749 44.997,38.729 44.997,36.249 C44.997,34.288 43.728,32.633 41.974,32.018 Z"/>
</svg>