<svg 
 xmlns="http://www.w3.org/2000/svg"
 xmlns:xlink="http://www.w3.org/1999/xlink"
 width="48px" height="48px" viewBox="0 0 48 48">
<path fill-rule="evenodd"  fill="rgb(255, 255, 255)"
 d="M46.498,47.997 L1.498,47.997 C0.670,47.997 -0.002,47.327 -0.002,46.497 C-0.002,45.668 0.670,44.997 1.498,44.997 L1.498,31.497 C1.498,29.016 3.517,26.997 5.998,26.997 C8.478,26.997 10.498,29.016 10.498,31.497 L10.498,44.997 L13.498,44.997 L13.498,17.997 C13.498,15.516 15.517,13.496 17.998,13.496 C20.479,13.496 22.498,15.516 22.498,17.997 L22.498,44.997 L25.498,44.997 L25.498,4.497 C25.498,2.016 27.517,-0.003 29.998,-0.003 C32.479,-0.003 34.498,2.016 34.498,4.497 L34.498,44.997 L37.498,44.997 L37.498,31.497 C37.498,29.016 39.517,26.997 41.998,26.997 C44.479,26.997 46.498,29.016 46.498,31.497 L46.498,44.997 C47.328,44.997 47.998,45.668 47.998,46.497 C47.998,47.327 47.328,47.997 46.498,47.997 ZM7.498,31.497 C7.498,30.670 6.824,29.995 5.998,29.995 C5.172,29.995 4.498,30.670 4.498,31.497 L4.498,44.997 L7.498,44.997 L7.498,31.497 ZM19.498,17.997 C19.498,17.171 18.824,16.497 17.998,16.497 C17.171,16.497 16.498,17.171 16.498,17.997 L16.498,44.997 L19.498,44.997 L19.498,17.997 ZM31.498,4.497 C31.498,3.671 30.826,2.998 29.998,2.998 C29.170,2.998 28.499,3.671 28.499,4.497 L28.499,44.997 L31.498,44.997 L31.498,4.497 ZM43.498,31.497 C43.498,30.670 42.826,29.995 41.998,29.995 C41.170,29.995 40.498,30.670 40.498,31.497 L40.498,44.997 L43.498,44.997 L43.498,31.497 Z"/>
</svg>