<svg xmlns="http://www.w3.org/2000/svg" width="48" height="42" viewBox="0 0 48 42">
    <defs>
        <style>
            .cls-1{fill:#fff;fill-rule:evenodd}
        </style>
    </defs>
    <path class="cls-1" d="M44.25 42H3.75a3.753 3.753 0 0 1-3.752-3.75V3.75A3.753 3.753 0 0 1 3.75 0h40.5A3.751 3.751 0 0 1 48 3.75v34.5A3.751 3.751 0 0 1 44.25 42zM3.75 3a.743.743 0 0 0-.75.75v34.5a.749.749 0 0 0 .75.75h40.5a.755.755 0 0 0 .75-.75V3.75a.749.749 0 0 0-.75-.75H3.75zm42.75 9h-45a1.5 1.5 0 1 1 0-3h45a1.5 1.5 0 0 1 0 3zM6 7.5a1.6 1.6 0 0 1-1.07-.44A1.551 1.551 0 0 1 4.5 6a1.5 1.5 0 1 1 3 0A1.5 1.5 0 0 1 6 7.5zm4.5 0a1.6 1.6 0 0 1-1.07-.44A1.551 1.551 0 0 1 9 6a1.5 1.5 0 1 1 3 0 1.5 1.5 0 0 1-1.5 1.5zM33 33a1.5 1.5 0 0 1-1.06-2.56l4.41-4.41a.754.754 0 0 0 0-1.06l-4.41-4.41a1.5 1.5 0 0 1 2.12-2.12l4.41 4.41a3.754 3.754 0 0 1 0 5.3l-4.41 4.41A1.508 1.508 0 0 1 33 33zm-18 0a1.491 1.491 0 0 1-1.06-.44l-4.41-4.41a3.754 3.754 0 0 1 0-5.3l4.41-4.41a1.5 1.5 0 0 1 2.12 2.12l-4.41 4.41a.754.754 0 0 0 0 1.06l4.41 4.41a1.491 1.491 0 0 1 0 2.12A1.508 1.508 0 0 1 15 33zm6 1.5a1.551 1.551 0 0 1-.56-.11 1.5 1.5 0 0 1-.83-1.95l6-15a1.5 1.5 0 1 1 2.78 1.12l-6 15a1.5 1.5 0 0 1-1.39.94z"/>
</svg>
