<svg xmlns="http://www.w3.org/2000/svg" width="48" height="48" viewBox="0 0 48 48">
    <defs>
        <style>
            .cls-1{fill:#fff;fill-rule:evenodd}
        </style>
    </defs>
    <path class="cls-1" d="M10.5 12h-9A1.506 1.506 0 0 1 0 10.5V6a6 6 0 0 1 12 0v4.5a1.506 1.506 0 0 1-1.5 1.5zM3 9h6V6a3 3 0 0 0-6 0v3zm37.5 30a1.5 1.5 0 0 1-1.5-1.5V6a3 3 0 0 0-3-3 1.5 1.5 0 0 1 0-3 6.005 6.005 0 0 1 6 6v31.5a1.5 1.5 0 0 1-1.5 1.5zM15 48a6.005 6.005 0 0 1-6-6v-4.5a1.5 1.5 0 0 1 3 0V42a3 3 0 0 0 6 0v-4.5a1.5 1.5 0 1 1 3 0V42a6.005 6.005 0 0 1-6 6zm27 0a1.5 1.5 0 0 1 0-3 3.006 3.006 0 0 0 3-3v-4.5a1.5 1.5 0 0 1 3 0V42a6.005 6.005 0 0 1-6 6zM36 3H6a1.5 1.5 0 0 1 0-3h30a1.5 1.5 0 1 1 0 3zm6 45H15a1.5 1.5 0 0 1 0-3h27a1.5 1.5 0 0 1 0 3zm-31.5-9A1.5 1.5 0 0 1 9 37.5v-27a1.5 1.5 0 0 1 3 0v27a1.5 1.5 0 0 1-1.5 1.5zm36 0h-27a1.5 1.5 0 0 1 0-3h27a1.5 1.5 0 0 1 0 3zm-12-27h-18a1.5 1.5 0 0 1 0-3h18a1.5 1.5 0 1 1 0 3zm0 6h-18a1.5 1.5 0 0 1 0-3h18a1.5 1.5 0 1 1 0 3zm0 6h-18a1.5 1.5 0 0 1 0-3h18a1.5 1.5 0 1 1 0 3zm-9 6h-9a1.5 1.5 0 0 1 0-3h9a1.5 1.5 0 1 1 0 3z"/>
</svg>
