<svg xmlns="http://www.w3.org/2000/svg" width="48" height="48" viewBox="0 0 48 48">
    <defs>
        <style>
            .cls-1{fill:#fff;fill-rule:evenodd}
        </style>
    </defs>
    <path class="cls-1" d="M46.5 42a1.5 1.5 0 0 1-1.5-1.5V3.74a.747.747 0 0 0-.75-.74H14.24a.738.738 0 0 0-.74.74V37.5a1.5 1.5 0 0 1-3 0V3.74A3.747 3.747 0 0 1 14.24 0h30.01A3.749 3.749 0 0 1 48 3.74V40.5a1.5 1.5 0 0 1-1.5 1.5zm-6 6h-33A7.511 7.511 0 0 1 0 40.5v-.75A3.753 3.753 0 0 1 3.752 36h30a3.751 3.751 0 0 1 3.75 3.75v.75a1.5 1.5 0 0 1-3 0v-.75a.749.749 0 0 0-.75-.75h-30a.749.749 0 0 0-.75.75v.75a4.507 4.507 0 0 0 4.5 4.5h33a1.5 1.5 0 0 1-.002 3zm-18-30a1.5 1.5 0 0 1-1.06-.44l-3-3a1.5 1.5 0 0 1 2.12-2.12l1.78 1.77L25.8 9.6a1.5 1.5 0 1 1 2.4 1.8l-4.5 6a1.517 1.517 0 0 1-1.1.59zm0 12a1.5 1.5 0 0 1-1.06-.44l-3-3a1.5 1.5 0 0 1 2.12-2.12l1.78 1.77 3.46-4.61a1.5 1.5 0 1 1 2.4 1.8l-4.5 6a1.517 1.517 0 0 1-1.1.59zM39 15h-6a1.5 1.5 0 0 1 0-3h6a1.5 1.5 0 0 1 0 3zm0 12h-6a1.5 1.5 0 0 1 0-3h6a1.5 1.5 0 0 1 0 3zm2.25 21a1.5 1.5 0 0 1 0-3c2.07 0 3.75-2.02 3.75-4.5a1.5 1.5 0 0 1 3 0c0 4.13-3.03 7.5-6.75 7.5zm0 0a6.858 6.858 0 0 1-6.4-5.12 7.975 7.975 0 0 1-.35-2.38 1.5 1.5 0 0 1 3 0 5.062 5.062 0 0 0 .22 1.51A3.882 3.882 0 0 0 41.25 45a1.5 1.5 0 0 1 0 3z"/>
</svg>
