<svg xmlns="http://www.w3.org/2000/svg" width="48" height="48" viewBox="0 0 48 48">
    <defs>
        <style>
            .cls-1{fill:#fff;fill-rule:evenodd}
        </style>
    </defs>
    <path class="cls-1" d="M28.5 15h-18a1.5 1.5 0 0 1 0-3h18a1.5 1.5 0 1 1 0 3zm0 6h-18a1.5 1.5 0 0 1 0-3h18a1.5 1.5 0 1 1 0 3zm0 6h-18a1.5 1.5 0 0 1 0-3h18a1.5 1.5 0 1 1 0 3zm-9 6h-9a1.5 1.5 0 0 1 0-3h9a1.5 1.5 0 1 1 0 3zM42 42a1.5 1.5 0 0 1-1.5-1.5V15.68a1.5 1.5 0 0 1 3 0V40.5A1.5 1.5 0 0 1 42 42zm0 6a5.547 5.547 0 0 1-1-.09 1.364 1.364 0 0 1-.5.09H6a6.005 6.005 0 0 1-6-6V3.74A3.749 3.749 0 0 1 3.747 0h31.506A3.75 3.75 0 0 1 39 3.74V42a3 3 0 0 0 6 0V18a1.5 1.5 0 0 1 3 0v24a6.005 6.005 0 0 1-6 6zM3.747 3A.743.743 0 0 0 3 3.74V42a3.006 3.006 0 0 0 3 3h30.8a5.977 5.977 0 0 1-.805-3V3.74a.744.744 0 0 0-.747-.74H3.745z"/>
</svg>
