<svg xmlns="http://www.w3.org/2000/svg" width="47.719" height="47.88" viewBox="0 0 47.719 47.88">
    <defs>
        <style>
            .cls-1{fill:#fff;fill-rule:evenodd}
        </style>
    </defs>
    <path class="cls-1" d="M19.26 40.27a1.494 1.494 0 0 1-1.055-.44L8.012 29.61a1.5 1.5 0 0 1 0-2.12L30.485 4.96c2.937-2.95 5.1-4.21 7.724-4.5l3.744-.42A5.209 5.209 0 0 1 47.69 5.8l-.416 3.75c-.291 2.63-1.551 4.8-4.488 7.74L20.315 39.83a1.5 1.5 0 0 1-1.055.44zm-8.082-11.72l8.082 8.11 21.419-21.48c2.772-2.78 3.456-4.4 3.632-5.96l.414-3.75a2.22 2.22 0 0 0-2.443-2.46l-3.744.42c-1.561.17-3.169.86-5.943 3.64zm15.663 19.32a1.491 1.491 0 0 1-1.054-.44l-7.458-7.48a1.492 1.492 0 1 1 2.109-2.11l6.4 6.42 1.936-1.94a3.576 3.576 0 0 0 1.047-2.54V26.93a1.492 1.492 0 1 1 2.983 0v12.85a6.524 6.524 0 0 1-1.922 4.65l-2.989 3a1.5 1.5 0 0 1-1.052.44zM14.163 35.16a1.5 1.5 0 0 1-1.054-2.56l9.695-9.72A1.5 1.5 0 0 1 24.913 25l-9.695 9.72a1.5 1.5 0 0 1-1.055.44zM1.485 47.87a1.471 1.471 0 0 1-1.1-.49 1.489 1.489 0 0 1-.317-1.47l4.412-13.4a1.478 1.478 0 0 1 1.885-.95 1.5 1.5 0 0 1 .948 1.89L3.735 44.31l10.708-2.51a1.5 1.5 0 0 1 .679 2.92l-13.3 3.11zm38.268-35.38a1.5 1.5 0 0 1-1.055-.44l-2.982-2.99a1.495 1.495 0 0 1 2.108-2.12l2.983 2.99a1.5 1.5 0 0 1-1.054 2.56zM8.943 29.92a1.456 1.456 0 0 1-1.055-.44L.431 22.01a1.5 1.5 0 0 1 0-2.12l2.991-3a6.5 6.5 0 0 1 4.637-1.92h12.816a1.5 1.5 0 0 1 0 2.99H8.059a3.534 3.534 0 0 0-2.528 1.05l-1.936 1.94 6.4 6.42a1.491 1.491 0 0 1 0 2.11 1.454 1.454 0 0 1-1.052.44z"/>
</svg>
