<?xml version="1.0" encoding="UTF-8"?><!DOCTYPE svg PUBLIC "-//W3C//DTD SVG 1.1//EN" "http://www.w3.org/Graphics/SVG/1.1/DTD/svg11.dtd"><svg xmlns="http://www.w3.org/2000/svg"><defs>
        <style>
            .cls-1{fill:#00bdca;fill-rule:evenodd}
        </style>
    
        <style>
            .cls-1{fill:#00bdca;fill-rule:evenodd}
        </style>
    
        <style>
            .cls-1{fill:#00bdca;fill-rule:evenodd}
        </style>
    
        <style>
            .cls-1{fill:#00bdca;fill-rule:evenodd}
        </style>
    
        <style>
            .cls-1{fill:#00bdca;fill-rule:evenodd}
        </style>
    
        <style>
            .cls-1{fill:#7eec4e;fill-rule:evenodd}
        </style>
    </defs><symbol id="icon-algorithm" viewBox="0 0 48 48">
    
    <path class="cls-1" d="M37.5 43.5H10.49a6 6 0 0 1-5.99-6V10.49a6 6 0 0 1 5.99-5.99H37.5a6 6 0 0 1 6 5.99V37.5a6 6 0 0 1-6 6zm-27.01-36a2.992 2.992 0 0 0-2.99 2.99V37.5a3 3 0 0 0 2.99 3H37.5a3.009 3.009 0 0 0 3-3V10.49a3 3 0 0 0-3-2.99H10.49zM29.25 33h-10.5A3.751 3.751 0 0 1 15 29.25v-10.5A3.751 3.751 0 0 1 18.75 15h10.5A3.751 3.751 0 0 1 33 18.75v10.5A3.751 3.751 0 0 1 29.25 33zm-10.5-15a.755.755 0 0 0-.75.75v10.5a.762.762 0 0 0 .75.75h10.5a.762.762 0 0 0 .75-.75v-10.5a.755.755 0 0 0-.75-.75h-10.5zM13.5 7.5A1.5 1.5 0 0 1 12 6V1.5A1.5 1.5 0 0 1 13.5 0 1.5 1.5 0 0 1 15 1.5V6a1.5 1.5 0 0 1-1.5 1.5zm21 0A1.5 1.5 0 0 1 33 6V1.5A1.5 1.5 0 0 1 34.5 0 1.5 1.5 0 0 1 36 1.5V6a1.5 1.5 0 0 1-1.5 1.5zM24 7.5A1.5 1.5 0 0 1 22.5 6V1.5A1.5 1.5 0 0 1 24 0a1.5 1.5 0 0 1 1.5 1.5V6A1.5 1.5 0 0 1 24 7.5zM13.5 48a1.5 1.5 0 0 1-1.5-1.5V42a1.5 1.5 0 0 1 1.5-1.5A1.5 1.5 0 0 1 15 42v4.5a1.5 1.5 0 0 1-1.5 1.5zm21 0a1.5 1.5 0 0 1-1.5-1.5V42a1.5 1.5 0 0 1 1.5-1.5A1.5 1.5 0 0 1 36 42v4.5a1.5 1.5 0 0 1-1.5 1.5zM24 48a1.5 1.5 0 0 1-1.5-1.5V42a1.5 1.5 0 0 1 1.5-1.5 1.5 1.5 0 0 1 1.5 1.5v4.5A1.5 1.5 0 0 1 24 48zM1.5 36a1.5 1.5 0 1 1 0-3h4.44a1.5 1.5 0 1 1 0 3H1.5zm0-21a1.5 1.5 0 1 1 0-3h4.44a1.5 1.5 0 1 1 0 3H1.5zm0 10.5a1.5 1.5 0 1 1 0-3l4.44-.01A1.507 1.507 0 0 1 7.44 24a1.49 1.49 0 0 1-1.5 1.49l-4.44.01zm45 10.5H42a1.5 1.5 0 0 1 0-3h4.5a1.5 1.5 0 0 1 0 3zM42 15a1.5 1.5 0 0 1 0-3h4.5a1.5 1.5 0 0 1 0 3H42zm0 10.5a1.5 1.5 0 0 1 0-3h4.5a1.5 1.5 0 0 1 0 3H42z"/>
</symbol><symbol id="icon-clock" viewBox="0 0 47.657 47.78">
    
    <path class="cls-1" d="M23.804 47.79a22.405 22.405 0 1 1 22.333-22.41 22.4 22.4 0 0 1-22.333 22.41zm0-41.83A19.42 19.42 0 1 0 43.16 25.38 19.415 19.415 0 0 0 23.804 5.96zM1.47 47.79a1.5 1.5 0 0 1-1.052-2.55l6.091-6.11a1.473 1.473 0 0 1 2.1 0 1.493 1.493 0 0 1 0 2.11l-6.091 6.11a1.489 1.489 0 0 1-1.048.44zm44.667 0a1.488 1.488 0 0 1-1.052-.44l-6.092-6.11a1.493 1.493 0 0 1 0-2.11 1.474 1.474 0 0 1 2.106 0l6.091 6.11a1.5 1.5 0 0 1-1.053 2.55zM1.47 9.82A1.5 1.5 0 0 1 .3 7.4 29.978 29.978 0 0 1 8.452.2a1.492 1.492 0 0 1 1.532 2.56 26.975 26.975 0 0 0-7.343 6.48 1.478 1.478 0 0 1-1.171.58zm44.669 0a1.477 1.477 0 0 1-1.172-.58 26.954 26.954 0 0 0-7.345-6.48A1.492 1.492 0 0 1 39.154.2a29.982 29.982 0 0 1 8.153 7.2 1.495 1.495 0 0 1-1.168 2.42zM23.804 26.88a1.493 1.493 0 0 1-1.489-1.5V11.94a1.489 1.489 0 1 1 2.978 0v13.44a1.494 1.494 0 0 1-1.489 1.5zm-8.932 5.97a1.485 1.485 0 0 1-1.24-.66 1.508 1.508 0 0 1 .412-2.08l8.933-5.97a1.49 1.49 0 0 1 2.066.41 1.506 1.506 0 0 1-.412 2.08l-8.934 5.97a1.482 1.482 0 0 1-.825.25z"/>
</symbol><symbol id="icon-cycle" viewBox="0 0 48 46.5">
    
    <path class="cls-1" d="M5.7 31.8a1.5 1.5 0 0 1-1.464-1.17 20.5 20.5 0 0 1-.486-4.38A20.206 20.206 0 0 1 17.626 7.04a1.5 1.5 0 1 1 .945 2.84 17.2 17.2 0 0 0-11.4 20.1 1.5 1.5 0 0 1-1.141 1.79 1.814 1.814 0 0 1-.33.03zM24 46.5a20.193 20.193 0 0 1-13.347-5.05 1.5 1.5 0 1 1 1.979-2.25 17.177 17.177 0 0 0 22.736 0 1.5 1.5 0 1 1 1.979 2.25A20.187 20.187 0 0 1 24 46.5zm18.3-14.7a1.8 1.8 0 0 1-.325-.03 1.5 1.5 0 0 1-1.143-1.79 17.187 17.187 0 0 0-11.4-20.09 1.501 1.501 0 0 1 .944-2.85 20.191 20.191 0 0 1 13.387 23.59A1.492 1.492 0 0 1 42.3 31.8zM7.5 43.5A7.5 7.5 0 1 1 15 36a7.512 7.512 0 0 1-7.5 7.5zm0-12A4.5 4.5 0 1 0 12 36a4.506 4.506 0 0 0-4.5-4.5zM24 15a7.5 7.5 0 1 1 7.5-7.5A7.512 7.512 0 0 1 24 15zm0-12a4.5 4.5 0 1 0 4.5 4.5A4.506 4.506 0 0 0 24 3zm16.5 40.5A7.5 7.5 0 1 1 48 36a7.512 7.512 0 0 1-7.5 7.5zm0-12A4.5 4.5 0 1 0 45 36a4.506 4.506 0 0 0-4.5-4.5z"/>
</symbol><symbol id="icon-facebook" viewBox="0 0 10 19">
    <title>
        facebook
    </title>
    <path d="M9.766.157v2.946H8.014c-.64 0-1.071.134-1.295.402-.223.268-.335.67-.335 1.205v2.11h3.27l-.435 3.303H6.384v8.471H2.97v-8.47H.123V6.82H2.97V4.387c0-1.384.387-2.457 1.161-3.22C4.904.404 5.934.023 7.222.023c1.093 0 1.941.045 2.544.134z" fill-rule="evenodd"/>
</symbol><symbol id="icon-points" viewBox="0 0 48 34.5">
    
    <path class="cls-1" d="M6 34.5a6 6 0 1 1 6-6 6.005 6.005 0 0 1-6 6zm0-9a3 3 0 1 0 3 3 3 3 0 0 0-3-3zm12-6a6 6 0 1 1 6-6 6.006 6.006 0 0 1-6 6zm0-9a3 3 0 1 0 3 3 3 3 0 0 0-3-3zM42 12a6 6 0 1 1 6-6 6.005 6.005 0 0 1-6 6zm0-9a3 3 0 1 0 3 3 3 3 0 0 0-3-3zM30 28.5a6 6 0 1 1 6-6 6.005 6.005 0 0 1-6 6zm0-9a3 3 0 1 0 3 3 3 3 0 0 0-3-3zm-3.668 1.75a1.507 1.507 0 0 1-.9-.3l-4.666-3.5a1.5 1.5 0 1 1 1.8-2.4l4.667 3.5a1.5 1.5 0 0 1-.903 2.7zm6.3-.88a1.453 1.453 0 0 1-.88-.29 1.494 1.494 0 0 1-.332-2.09l6.727-9.25a1.5 1.5 0 0 1 2.425 1.76l-6.726 9.26a1.5 1.5 0 0 1-1.213.61zm-23.7 5.96a1.5 1.5 0 0 1-1.171-2.44l6.13-7.66a1.5 1.5 0 0 1 2.341 1.87l-6.129 7.67a1.525 1.525 0 0 1-1.169.56z"/>
</symbol><symbol id="icon-project" viewBox="0 0 48 48">
    
    <path class="cls-1" d="M44.24 48H3.75a3.762 3.762 0 0 1-3.752-3.76V11.25A3.753 3.753 0 0 1 3.75 7.5h40.49A3.76 3.76 0 0 1 48 11.25v32.99A3.768 3.768 0 0 1 44.24 48zM3.75 10.5a.755.755 0 0 0-.75.75v32.99a.758.758 0 0 0 .75.76h40.49a.76.76 0 0 0 .76-.76V11.25a.758.758 0 0 0-.76-.75H3.75zm42.75 24h-45a1.5 1.5 0 1 1 0-3h45a1.5 1.5 0 0 1 0 3zM33 9h-3V3.86a.789.789 0 0 0-.57-.86H18.56a.793.793 0 0 0-.56.86V9h-3V3.86A3.724 3.724 0 0 1 18.56 0h10.87A3.726 3.726 0 0 1 33 3.86V9zm-9 18a1.6 1.6 0 0 1-1.07-.44 1.551 1.551 0 0 1-.43-1.06 1.5 1.5 0 1 1 3 0A1.5 1.5 0 0 1 24 27z"/>
</symbol><symbol id="icon-upArrow" viewBox="0 0 8 5">
    
    <path id="up" class="cls-1" d="M791.991 2028.43l1.432-1.44 3.58 3.58-1.432 1.44zm-3 2.14l3.58-3.58 1.433 1.44-3.58 3.58z" transform="translate(-789 -2027)"/>
</symbol></svg>