<svg xmlns="http://www.w3.org/2000/svg" width="48" height="48" viewBox="0 0 48 48">
    <path fill-rule="evenodd" fill="#FFF" d="M46.498 47.997h-45a1.5 1.5 0 1 1 0-3v-13.5c0-2.481 2.019-4.5 4.5-4.5 2.48 0 4.5 2.019 4.5 4.5v13.5h3v-27a4.506 4.506 0 0 1 4.5-4.501c2.481 0 4.5 2.02 4.5 4.501v27h3v-40.5c0-2.481 2.019-4.5 4.5-4.5s4.5 2.019 4.5 4.5v40.5h3v-13.5c0-2.481 2.019-4.5 4.5-4.5s4.5 2.019 4.5 4.5v13.5c.83 0 1.5.671 1.5 1.5 0 .83-.67 1.5-1.5 1.5zm-39-16.5c0-.827-.674-1.502-1.5-1.502s-1.5.675-1.5 1.502v13.5h3v-13.5zm12-13.5c0-.826-.674-1.5-1.5-1.5-.827 0-1.5.674-1.5 1.5v27h3v-27zm12-13.5a1.5 1.5 0 0 0-2.999 0v40.5h2.999v-40.5zm12 27c0-.827-.672-1.502-1.5-1.502s-1.5.675-1.5 1.502v13.5h3v-13.5z"/>
</svg>
